<?xml version="1.0" encoding="utf-8"?>
<!-- Generator: Adobe Illustrator 26.0.3, SVG Export Plug-In . SVG Version: 6.00 Build 0)  -->
<svg version="1.1" id="Layer_1" xmlns="http://www.w3.org/2000/svg" xmlns:xlink="http://www.w3.org/1999/xlink" x="0px" y="0px"
	 viewBox="0 0 402.3 438.9" style="enable-background:new 0 0 402.3 438.9;" xml:space="preserve">
<style type="text/css">
	.st0{fill:url(#SVGID_1_);}
	.st1{fill:#C6E2F4;}
	.st2{fill:#3285FF;}
	.st3{fill:none;stroke:#3081F8;stroke-width:1.7234;stroke-miterlimit:10;}
	.st4{opacity:0.1;}
	.st5{fill:#2D76E3;}
	.st6{fill:none;stroke:#296ED3;stroke-width:2.1584;stroke-miterlimit:10;}
	.st7{fill:#3087FF;}
	.st8{fill:none;stroke:#3087FF;stroke-width:1.6185;stroke-miterlimit:10;}
	.st9{fill:#78B0FF;}
	.st10{fill:none;stroke:#78B0FF;stroke-width:1.123;stroke-miterlimit:10;}
	.st11{fill:none;stroke:#296ED3;stroke-width:1.0385;stroke-miterlimit:10;}
	.st12{fill:#FFB49B;}
	.st13{fill:#41378C;}
	.st14{fill:#FFFFFF;}
	.st15{fill:#9B14AA;}
	.st16{fill:#BE1EC8;}
	.st17{fill:#FFA587;}
	.st18{fill:#F5876E;}
</style>
<linearGradient id="SVGID_1_" gradientUnits="userSpaceOnUse" x1="487.3307" y1="36.533" x2="-436.7616" y2="627.1898">
	<stop  offset="0" style="stop-color:#AC5CFF"/>
	<stop  offset="1" style="stop-color:#4447AD"/>
</linearGradient>
<rect class="st0" width="402.3" height="438.9"/>
<g>
	
		<ellipse transform="matrix(0.7071 -0.7071 0.7071 0.7071 -70.3879 202.019)" class="st1" cx="208.7" cy="186" rx="119.1" ry="119.1"/>
	<g>
		<path class="st2" d="M145.6,311.8c0,0-0.6-54.5,36.1-87.1c16.7-14.8,55.3,4.3,18.2,29.4C184.7,264.5,161.4,273.8,145.6,311.8z"/>
		<path class="st3" d="M195,235c0,0-53,34.9-50.1,96.9"/>
	</g>
	<ellipse class="st4" cx="206.6" cy="330.7" rx="41.1" ry="5.7"/>
	<g>
		<path class="st5" d="M133.4,309.9c0,0-1.9-59.8-77.4-89.3c-26-10.2-64,26.9-10,42.2C68.2,269.2,99.6,270.9,133.4,309.9z"/>
		<path class="st6" d="M44.4,238.1c0,0,76.8,20.5,97.9,95.3"/>
	</g>
	<g>
		<path class="st7" d="M79,185.5c4.9,3.3,6.4,9.6,6.4,9.6s-6.4,1-11.3-2.2c-4.9-3.3-7.8-7.6-6.4-9.6C69.1,181.3,74.1,182.2,79,185.5
			z"/>
		<path class="st7" d="M90.3,199.5c4.1,1.7,6.2,6.1,6.2,6.1s-4.6,1.8-8.7,0.1c-4.1-1.7-6.9-4.4-6.2-6.1
			C82.3,197.9,86.2,197.8,90.3,199.5z"/>
		<path class="st7" d="M94.6,194.3c1.7,4.1,0,8.7,0,8.7s-4.5-2-6.2-6.2c-1.7-4.1-1.7-8,0-8.7C90.1,187.4,92.9,190.2,94.6,194.3z"/>
		<path class="st7" d="M97.2,208.7c5.2,1.2,8.6,6.1,8.6,6.1s-5.2,3-10.4,1.7c-5.2-1.2-9.1-4-8.6-6.1C87.3,208.3,92,207.5,97.2,208.7
			z"/>
		<path class="st7" d="M106.4,203.3c1.5,5.2-1.2,10.5-1.2,10.5s-5.1-3-6.6-8.2c-1.5-5.2-1-9.8,1.2-10.5S104.9,198.1,106.4,203.3z"/>
		<path class="st7" d="M102.2,219.5c5.4,0,9.7,4,9.7,4s-4.3,4.1-9.7,4.1c-5.4,0-9.7-1.8-9.7-4C92.5,221.4,96.8,219.5,102.2,219.5z"
			/>
		<path class="st7" d="M108.8,231.5c5.7-0.3,10.6,3.8,10.6,3.8s-4.4,4.5-10.2,4.8c-5.7,0.3-10.5-1.5-10.6-3.8
			C98.5,233.9,103.1,231.7,108.8,231.5z"/>
		<path class="st7" d="M114.8,243.4c5.7-0.8,10.9,2.7,10.9,2.7s-4,5-9.6,5.8c-5.7,0.8-10.6-0.4-10.9-2.7
			C104.8,246.9,109.1,244.3,114.8,243.4z"/>
		<path class="st7" d="M121.6,257c5.7,0.1,10.3,4.5,10.3,4.5s-4.7,4.2-10.4,4.2c-5.7-0.1-10.3-2.1-10.3-4.5
			C111.1,258.8,115.8,256.9,121.6,257z"/>
		<path class="st7" d="M111.5,212.6c-2.1,4.9-0.1,10.5-0.1,10.5s5.4-2.4,7.6-7.3c2.1-4.9,2.2-9.7,0.1-10.5
			C117,204.4,113.7,207.6,111.5,212.6z"/>
		<path class="st7" d="M121.5,224.4c-3.2,4.7-2.3,11-2.3,11s6.2-1.4,9.4-6.1c3.2-4.7,4.3-9.7,2.3-11S124.7,219.7,121.5,224.4z"/>
		<path class="st7" d="M128.5,235.8c-3.7,4.4-3.4,10.7-3.4,10.7s6.3-0.7,10-5.1c3.7-4.4,5.2-9.2,3.4-10.7
			C136.6,229.1,132.2,231.4,128.5,235.8z"/>
		<path class="st7" d="M133.1,250.6c-2.9,4.9-1.6,11.1-1.6,11.1s6.1-1.8,9-6.7c2.9-4.9,3.7-9.9,1.6-11.1
			C140.1,242.7,136.1,245.7,133.1,250.6z"/>
		<path class="st7" d="M127.4,271.3c5.6,1.3,9.2,6.5,9.2,6.5s-5.5,3.2-11.1,1.9c-5.6-1.3-9.7-4.2-9.2-6.5
			C116.8,270.9,121.8,270,127.4,271.3z"/>
		<path class="st7" d="M140,267.4c-3.9,4.2-3.9,10.6-3.9,10.6s6.3-0.5,10.2-4.7c3.9-4.2,5.6-8.9,3.9-10.6
			C148.5,261.1,143.9,263.2,140,267.4z"/>
		<path class="st7" d="M131,286.8c5.5,1.7,8.6,7.3,8.6,7.3s-5.7,2.7-11.2,1c-5.5-1.7-9.3-5-8.6-7.3C120.5,285.5,125.5,285,131,286.8
			z"/>
		<path class="st7" d="M143.9,284c-4.2,3.9-4.8,10.2-4.8,10.2s6.3,0.1,10.6-3.8c4.2-3.9,6.4-8.4,4.8-10.2
			C152.9,278.4,148.2,280.1,143.9,284z"/>
		<path class="st8" d="M79.6,191.5c0,0,28.1,15.2,46.9,57.8s15.2,82.8,15.2,82.8"/>
	</g>
	<g>
		<path class="st9" d="M328.3,239.7c-3.6,1.8-5.2,6.1-5.2,6.1s4.3,1.3,8-0.6c3.6-1.8,6-4.6,5.2-6.1
			C335.6,237.6,332,237.9,328.3,239.7z"/>
		<path class="st9" d="M319.4,248.4c-3,0.8-4.8,3.7-4.8,3.7s3,1.6,6,0.8c3-0.8,5.1-2.5,4.8-3.7C325.1,248,322.4,247.6,319.4,248.4z"
			/>
		<path class="st9" d="M316.9,244.5c-1.5,2.7-0.7,6-0.7,6s3.3-1,4.8-3.7c1.5-2.7,1.8-5.4,0.7-6C320.6,240.1,318.4,241.8,316.9,244.5
			z"/>
		<path class="st9" d="M313.9,254.2c-3.7,0.4-6.4,3.5-6.4,3.5s3.3,2.5,7,2.1c3.7-0.4,6.6-2,6.4-3.5
			C320.8,254.7,317.6,253.8,313.9,254.2z"/>
		<path class="st9" d="M308,249.7c-1.5,3.4-0.1,7.3-0.1,7.3s3.8-1.7,5.2-5.1c1.5-3.4,1.5-6.7,0.1-7.3
			C311.8,244,309.5,246.3,308,249.7z"/>
		<path class="st9" d="M309.6,261.2c-3.7-0.5-7,2-7,2s2.7,3.2,6.4,3.6c3.7,0.5,6.9-0.4,7-2C316.1,263.3,313.3,261.7,309.6,261.2z"/>
		<path class="st9" d="M304.1,268.9c-3.9-0.7-7.6,1.8-7.6,1.8s2.7,3.5,6.6,4.1c3.9,0.7,7.3-0.1,7.6-1.8
			C311,271.4,308,269.6,304.1,268.9z"/>
		<path class="st9" d="M299,276.7c-3.8-1.1-7.7,1-7.7,1s2.3,3.7,6.2,4.8s7.3,0.6,7.7-1C305.5,279.8,302.8,277.7,299,276.7z"/>
		<path class="st9" d="M293.2,285.5c-4-0.4-7.5,2.2-7.5,2.2s2.9,3.3,6.9,3.7c4,0.4,7.3-0.6,7.5-2.2
			C300.2,287.5,297.1,285.9,293.2,285.5z"/>
		<path class="st9" d="M303.7,255.7c1.1,3.6-0.8,7.3-0.8,7.3s-3.5-2.1-4.6-5.7c-1.1-3.6-0.7-6.8,0.8-7.3
			C300.6,249.6,302.7,252.1,303.7,255.7z"/>
		<path class="st9" d="M295.9,263c1.8,3.5,0.7,7.8,0.7,7.8s-4.2-1.5-6-5c-1.8-3.5-2.2-7-0.7-7.8C291.4,257.3,294.1,259.5,295.9,263z
			"/>
		<path class="st9" d="M290.2,270.3c2.2,3.3,1.5,7.7,1.5,7.7s-4.3-1-6.5-4.3c-2.2-3.3-2.9-6.7-1.5-7.7
			C285.1,265,288,267,290.2,270.3z"/>
		<path class="st9" d="M285.7,280.1c1.6,3.6,0.2,7.8,0.2,7.8s-4.1-1.7-5.7-5.4c-1.6-3.6-1.7-7.1-0.2-7.8
			C281.6,274,284.1,276.4,285.7,280.1z"/>
		<path class="st9" d="M288,294.8c-4,0.4-6.8,3.7-6.8,3.7s3.5,2.6,7.5,2.2c4-0.4,7-2.1,6.8-3.7C295.3,295.4,291.9,294.4,288,294.8z"
			/>
		<path class="st9" d="M279.6,291.1c2.3,3.2,1.8,7.6,1.8,7.6s-4.3-0.8-6.7-4.1c-2.3-3.2-3.1-6.6-1.8-7.6
			C274.3,286,277.3,287.9,279.6,291.1z"/>
		<path class="st9" d="M284.2,305.2c-3.9,0.8-6.5,4.3-6.5,4.3s3.7,2.3,7.6,1.6c3.9-0.8,6.8-2.7,6.5-4.3
			C291.5,305.2,288.1,304.4,284.2,305.2z"/>
		<path class="st9" d="M275.5,302.2c2.6,3,2.4,7.4,2.4,7.4s-4.4-0.5-7-3.5c-2.6-3-3.7-6.3-2.4-7.4
			C269.8,297.6,272.9,299.2,275.5,302.2z"/>
		<path class="st10" d="M327.5,243.8c0,0-20.6,8.2-37.1,35.9c-16.4,27.8-17.3,55.8-17.3,55.8"/>
	</g>
	<g>
		<path class="st5" d="M266.4,313.1c0,0-21.1-64.9,10.6-117.7c14.4-24,67.7-15.5,32.8,28.4C295.4,241.9,271,261.7,266.4,313.1z"/>
		<path class="st6" d="M296.6,202.9c0,0-50.3,61.5-23.7,134.5"/>
	</g>
	<g>
		<path class="st5" d="M277,324.5c0,0,9.8-31.3,36.9-43.2c12.3-5.4,30.9,12.7,5,20.3C308.2,304.7,293.2,305.6,277,324.5z"/>
		<path class="st11" d="M319.6,289.7c0,0-36.9,10.1-46.8,46.2"/>
	</g>
	<g>
		<path class="st12" d="M249.2,86l-0.1-7.5c0-1.2-0.6-2.3-1.4-3.1c-1.4-1.3-3.2-3.6-2.8-4.2c0.8-1,3.3,2.7,4.3,1.9
			c0.3-0.2-1.4-10.3-0.4-10.2c0.8,0,1.1,5.7,1.5,5.7c0.4,0,0.3-9.4,1-9.3c0.7,0.1,1,8.6,1.5,8.3c0.7-0.5,0-7.5,1.2-7.8
			c0.8-0.2,0.7,8.9,1.1,9.1c0.6,0.2,0.8-5.9,1.5-5.7c1,0.3-0.5,10.7-0.5,10.7l-1.8,13.2L249.2,86z"/>
		<path class="st12" d="M140.9,119.3l-5-5.5c-0.8-0.9-1.2-2.1-1.1-3.3c0.2-1.9-0.1-4.9-0.8-5c-1.3-0.2-0.6,4.2-1.8,4.4
			c-0.4,0-6-8.5-6.7-7.7c-0.6,0.6,3.1,4.9,2.8,5.1c-0.3,0.2-6.6-6.6-7.1-6.1c-0.5,0.5,5.2,6.9,4.6,7c-0.8,0.2-5.1-5.4-6.2-4.9
			c-0.7,0.4,5.6,6.9,5.4,7.4c-0.3,0.5-4.6-3.7-5-3.1c-0.5,0.9,7.7,7.5,7.7,7.5l10.4,8.3L140.9,119.3z"/>
		<g>
			<path class="st13" d="M210.2,100.1c-2.4-9.8-11.2-17.2-21.8-17.2c-0.9,0-1.8,0.1-2.7,0.2c-4.2,0.5-8.3,0.7-12.5,0.1
				c-1.8-0.2-3.9-0.5-6-0.8c-10.1-1.3-18.1,8.3-14.9,17.9c0,0.1,0.1,0.2,0.1,0.4c1.8,5.3,2.6,10.7,2.7,16.3c0,0.5,0,0.9,0.1,1.4
				c0.8,10.5,9,19.2,19.4,20.6c1.3,0.2,2.7,0.2,3.9,0.2c6-0.3,12,0.6,17.5,2.9c2.4,1,4.8,1.7,6.8,1.7c12.4,0,22.4-10,22.4-22.4
				C225.3,111.5,219,103.1,210.2,100.1z"/>
			<path class="st14" d="M262.4,97.4c0,0-3.5,34.7-8.8,44.8c-4.2,8-25.2,25.8-25.2,25.8c-2.9,3-7.8,2.8-10.6-0.4v0
				c-2-2.3-2.2-5.6-0.7-8.2c0,0,19.2-20.7,22-29.4c2.7-8.3-0.4-34.8-0.4-34.8c-0.1-7.7,7-13.5,14.6-11.8h0
				C259.6,84.9,263.7,91.1,262.4,97.4z"/>
			<path class="st13" d="M236.8,292.2c-3.9-1.3-4.6,1.4-5.9,6.3c-1.3,4.9-1.6,8.5-0.3,8.9c1.2,0.3,2.8-1.4,5.6-5.6
				C239.5,296.8,239.3,293.1,236.8,292.2z"/>
			<path class="st12" d="M239.8,287.4l-3.8,5.3c-1.2,1.6-1.2,2.8-0.4,3.6v0c0.8,0.7,2,0.8,2.7,0.1l6.3-5.3L239.8,287.4z"/>
			<path class="st15" d="M225.9,197.4c-19.1,7.5-13.8,33.4-4.8,38.7c13.4,7.9,40.1,4.6,40.1,6.7c0.1,8.7-23.2,45.3-23.2,45.3
				c-0.2,0.3-0.2,0.8,0.1,1.1c1.4,1.5,2.3,2.6,4.7,4.1c0.3,0.2,0.7,0,0.9-0.2c13-12.1,39.5-42.1,42.6-55.1
				C291.5,216.5,229.4,196,225.9,197.4z"/>
			<path class="st13" d="M132.4,278.5c-1.7-3.8-4.2-2.5-8.7-0.1c-4.5,2.3-7.4,4.6-6.8,5.8c0.6,1.1,2.9,1.1,7.9,0.4
				C130.9,283.7,133.5,281,132.4,278.5z"/>
			<path class="st12" d="M138,277.4l-6.4,0.7c-2,0.2-2.9,1.1-2.9,2.1l0,0c0,1.1,0.8,2,1.8,2.1l8.1,1.1L138,277.4z"/>
			<path class="st16" d="M227.1,200.4c-3.9-4-22.5-0.8-22.5-0.8c-19.2,7.2-18.2,23.9-16.1,34.2c3.2,15.2-1.7,27.9-3.2,29.3
				c-6.4,5.9-49.1,13.4-49.1,13.4c-0.4,0.1-0.7,0.4-0.7,0.8c-0.2,2-0.4,3.4,0.1,6.2c0.1,0.3,0.4,0.5,0.8,0.5
				c17.8,1.4,53.5,4.6,64.9-2.3C227.4,266.2,242,215.8,227.1,200.4z"/>
			<path class="st14" d="M227,207.7c6-0.8,11-5,12.7-10.7c2.6-8.7,6.2-22.8,4.6-30.9c-1.5-7.6-7.4-21.6-22-21.6
				c-9.8,0-29.5,2.9-28.2,17.9c0.8,9.4,2.4,27,9.8,38.8c1.4,2.2,3.5,3.9,6,4.7C213.5,207.1,220,208.6,227,207.7z"/>
			<path class="st17" d="M221.6,152.6h-2.1c-2.2,0-4.1-1.8-4.1-4.1v-18h10.3v18C225.6,150.8,223.8,152.6,221.6,152.6z"/>
			<path class="st18" d="M224.6,143.7L224.6,143.7c0.3,0,0.7,0,1-0.1v-13.1h-10.3v1.9C215.4,137.6,219.5,143.7,224.6,143.7z"/>
			<path class="st12" d="M226.9,140.2L226.9,140.2c-4.2,1.6-11.8-1.3-13.4-5.5c0,0-3.5-6.4-3.3-8.7c0.9-10.7,11.1-8.6,14.8-7
				c2.1,0.9,3.2,7.6,3.7,9.8C229.9,133.2,228.8,139.5,226.9,140.2z"/>
			<path class="st17" d="M208.9,132c0.7,1.9,2.8,2.8,4.7,2.1l-2.6-6.8C209.1,128,208.2,130.1,208.9,132z"/>
			<path class="st17" d="M225,119.1l-12.8,4.9l1.1,2.8c-1.3,0.6-1.9,2.1-1.4,3.4c0.1,0.3,0.3,0.6,0.6,0.9c0.3-0.2,0.5-0.5,0.7-0.8
				c0.4-0.6,1-1.1,1.7-1.3c1.5-0.6,2.7-1.7,3.5-3c1.1-1.9,2.9-3.3,5-3.7c0.4-0.1,0.9-0.2,1.3-0.4c0.4-0.1,0.7-0.3,1.1-0.5L225,119.1
				z"/>
			<path class="st13" d="M216.4,102c-2.7,1.1-4.7,3.4-5.6,6c-1,2.7-3,4.9-5.5,6.5c0,0-0.1,0-0.1,0.1c-2.7,1.7-4.2,5.1-3.6,8.2
				c0.1,0.4,0.2,0.8,0.3,1.2c0.4,1.3,0.7,2.7,0.5,4c-0.1,0.6,0,1.3,0.2,1.9c0.8,2.2,3.4,3.2,5.7,2.3c1-0.4,1.7-1,2.2-1.8
				c0.5-0.7,1.2-1.2,2-1.5c1.7-0.7,3.1-1.9,4-3.4c1.2-2.1,3.3-3.8,5.7-4.3c0.5-0.1,1-0.3,1.5-0.4c5.3-2,7.9-8,5.7-13.3
				C227.6,102.5,221.4,99.9,216.4,102z"/>
			<path class="st14" d="M134.8,132.1c0,0,22.9,21.2,33.2,25.7c7.5,3.2,36.6,6.3,36.6,6.3c3.7,0.9,7.5-1.5,8.2-5.3l0,0
				c0.5-2.7-0.8-5.4-3.2-6.7c0,0-25.9-4.2-33-8.3c-7.3-4.2-24.1-24.5-24.1-24.5c-6.5-6.3-11.7-7.1-16.8-2.3l0,0
				C131.4,121,129.6,128.8,134.8,132.1z"/>
		</g>
	</g>
</g>
</svg>
