<?xml version="1.0" encoding="utf-8"?>
<!-- Generator: Adobe Illustrator 26.0.3, SVG Export Plug-In . SVG Version: 6.00 Build 0)  -->
<svg version="1.1" id="Layer_1" xmlns="http://www.w3.org/2000/svg" xmlns:xlink="http://www.w3.org/1999/xlink" x="0px" y="0px"
	 viewBox="0 0 830 548.4" style="enable-background:new 0 0 830 548.4;" xml:space="preserve">
<style type="text/css">
	.st0{fill:url(#SVGID_1_);}
	.st1{fill:#C6E2F4;}
	.st2{fill:#3285FF;}
	.st3{fill:none;stroke:#3081F8;stroke-width:1.7115;stroke-miterlimit:10;}
	.st4{opacity:0.1;}
	.st5{fill:#2D76E3;}
	.st6{fill:none;stroke:#296ED3;stroke-width:2.1436;stroke-miterlimit:10;}
	.st7{fill:#3087FF;}
	.st8{fill:none;stroke:#3087FF;stroke-width:1.6074;stroke-miterlimit:10;}
	.st9{fill:#78B0FF;}
	.st10{fill:none;stroke:#78B0FF;stroke-width:1.1152;stroke-miterlimit:10;}
	.st11{fill:none;stroke:#296ED3;stroke-width:2.1435;stroke-miterlimit:10;}
	.st12{fill:none;stroke:#296ED3;stroke-width:1.0314;stroke-miterlimit:10;}
	.st13{fill:#FFB49B;}
	.st14{fill:#41378C;}
	.st15{fill:#FFFFFF;}
	.st16{fill:#9B14AA;}
	.st17{fill:#BE1EC8;}
	.st18{fill:#FFA587;}
	.st19{fill:#F5876E;}
</style>
<linearGradient id="SVGID_1_" gradientUnits="userSpaceOnUse" x1="909.7292" y1="-42.0367" x2="-687.8306" y2="979.0836">
	<stop  offset="0" style="stop-color:#AC5CFF"/>
	<stop  offset="1" style="stop-color:#4447AD"/>
</linearGradient>
<rect class="st0" width="830" height="548.4"/>
<g>
	
		<ellipse transform="matrix(0.7071 -0.7071 0.7071 0.7071 -56.4636 367.1853)" class="st1" cx="415" cy="251.8" rx="118.2" ry="118.2"/>
	<g>
		<path class="st2" d="M356.9,376.7c0,0-0.6-54.1,35.9-86.5c16.6-14.7,54.9,4.3,18.1,29.2C395.8,329.7,372.6,338.9,356.9,376.7z"/>
		<path class="st3" d="M405.9,300.4c0,0-52.7,34.6-49.8,96.2"/>
	</g>
	<ellipse class="st4" cx="417.5" cy="395.5" rx="40.9" ry="5.7"/>
	<g>
		<path class="st5" d="M344.8,374.9c0,0-1.9-59.3-76.9-88.7c-25.9-10.1-63.5,26.8-10,41.9C280,334.4,311.2,336.1,344.8,374.9z"/>
		<path class="st6" d="M256.4,303.6c0,0,76.3,20.3,97.2,94.6"/>
	</g>
	<g>
		<path class="st7" d="M290.8,251.3c4.9,3.2,6.4,9.5,6.4,9.5s-6.4,1-11.3-2.2c-4.9-3.2-7.7-7.5-6.4-9.5
			C280.9,247.1,285.9,248.1,290.8,251.3z"/>
		<path class="st7" d="M302,265.2c4.1,1.7,6.2,6.1,6.2,6.1s-4.6,1.8-8.7,0.1c-4.1-1.7-6.9-4.4-6.2-6.1
			C294,263.6,297.9,263.5,302,265.2z"/>
		<path class="st7" d="M306.3,260c1.7,4.1,0,8.7,0,8.7s-4.5-2-6.2-6.1c-1.7-4.1-1.7-8,0-8.7C301.8,253.2,304.6,255.9,306.3,260z"/>
		<path class="st7" d="M308.8,274.3c5.2,1.2,8.5,6.1,8.5,6.1s-5.1,2.9-10.3,1.7c-5.2-1.2-9-3.9-8.5-6.1S303.6,273.1,308.8,274.3z"/>
		<path class="st7" d="M318,268.9c1.5,5.1-1.2,10.4-1.2,10.4s-5.1-3-6.6-8.1c-1.5-5.1-1-9.8,1.2-10.4
			C313.5,260.2,316.5,263.8,318,268.9z"/>
		<path class="st7" d="M313.8,285.1c5.3,0,9.7,4,9.7,4s-4.3,4-9.6,4.1c-5.3,0-9.7-1.8-9.7-4C304.1,286.9,308.5,285.1,313.8,285.1z"
			/>
		<path class="st7" d="M320.3,296.9c5.7-0.3,10.5,3.8,10.5,3.8s-4.4,4.5-10.1,4.8c-5.7,0.3-10.4-1.4-10.5-3.8
			C310.1,299.3,314.7,297.2,320.3,296.9z"/>
		<path class="st7" d="M326.3,308.8c5.6-0.8,10.8,2.7,10.8,2.7s-3.9,4.9-9.6,5.8c-5.6,0.8-10.5-0.4-10.8-2.7
			C316.4,312.2,320.7,309.6,326.3,308.8z"/>
		<path class="st7" d="M333,322.3c5.7,0.1,10.2,4.5,10.2,4.5s-4.7,4.2-10.4,4.1c-5.7-0.1-10.3-2.1-10.2-4.5
			C322.7,324,327.3,322.2,333,322.3z"/>
		<path class="st7" d="M323.1,278.2c-2.1,4.9-0.1,10.5-0.1,10.5s5.4-2.4,7.5-7.3c2.1-4.9,2.2-9.6,0.1-10.5
			C328.6,270,325.2,273.3,323.1,278.2z"/>
		<path class="st7" d="M332.9,289.9c-3.2,4.7-2.3,10.9-2.3,10.9s6.2-1.4,9.4-6.1c3.2-4.7,4.2-9.6,2.3-10.9
			C340.4,282.5,336.2,285.2,332.9,289.9z"/>
		<path class="st7" d="M339.9,301.2c-3.7,4.3-3.4,10.6-3.4,10.6s6.3-0.7,9.9-5.1c3.7-4.3,5.2-9.1,3.4-10.6
			C348,294.6,343.6,296.9,339.9,301.2z"/>
		<path class="st7" d="M344.5,315.9c-2.9,4.9-1.6,11.1-1.6,11.1s6.1-1.8,9-6.6c2.9-4.9,3.6-9.8,1.6-11.1
			C351.4,308,347.4,311,344.5,315.9z"/>
		<path class="st7" d="M338.8,336.5c5.5,1.3,9.1,6.5,9.1,6.5s-5.5,3.2-11,1.9c-5.5-1.3-9.6-4.2-9.1-6.5
			C328.3,336,333.2,335.2,338.8,336.5z"/>
		<path class="st7" d="M351.3,332.6c-3.9,4.2-3.8,10.5-3.8,10.5s6.3-0.5,10.2-4.7c3.9-4.2,5.6-8.9,3.8-10.5
			C359.8,326.3,355.2,328.4,351.3,332.6z"/>
		<path class="st7" d="M342.4,351.9c5.4,1.7,8.5,7.2,8.5,7.2s-5.7,2.7-11.1,1c-5.4-1.7-9.2-5-8.5-7.2
			C332,350.6,337,350.1,342.4,351.9z"/>
		<path class="st7" d="M355.3,349.1c-4.2,3.8-4.7,10.1-4.7,10.1s6.3,0.1,10.5-3.8s6.3-8.4,4.7-10.1
			C364.2,343.5,359.5,345.2,355.3,349.1z"/>
		<path class="st8" d="M291.3,257.2c0,0,27.9,15.1,46.6,57.4s15.1,82.2,15.1,82.2"/>
	</g>
	<g>
		<path class="st9" d="M538.4,305.1c-3.6,1.8-5.2,6.1-5.2,6.1s4.3,1.2,7.9-0.6c3.6-1.8,5.9-4.5,5.2-6.1
			C545.6,303,542,303.3,538.4,305.1z"/>
		<path class="st9" d="M529.6,313.8c-3,0.8-4.8,3.7-4.8,3.7s3,1.6,6,0.8c3-0.8,5.1-2.5,4.8-3.7C535.2,313.3,532.5,313,529.6,313.8z"
			/>
		<path class="st9" d="M527,309.8c-1.5,2.7-0.7,6-0.7,6s3.2-1,4.7-3.7c1.5-2.7,1.8-5.3,0.7-6S528.5,307.2,527,309.8z"/>
		<path class="st9" d="M524.1,319.5c-3.7,0.4-6.4,3.5-6.4,3.5s3.3,2.4,7,2c3.7-0.4,6.5-2,6.4-3.5C530.9,320,527.7,319.1,524.1,319.5
			z"/>
		<path class="st9" d="M518.2,315c-1.4,3.4-0.1,7.3-0.1,7.3s3.7-1.7,5.2-5.1s1.5-6.7,0.1-7.3C522,309.3,519.7,311.6,518.2,315z"/>
		<path class="st9" d="M519.8,326.5c-3.7-0.5-7,2-7,2s2.6,3.1,6.3,3.6c3.7,0.5,6.8-0.4,7-2C526.3,328.6,523.4,326.9,519.8,326.5z"/>
		<path class="st9" d="M514.3,334.1c-3.9-0.7-7.5,1.8-7.5,1.8s2.7,3.5,6.6,4.1c3.9,0.7,7.3-0.1,7.5-1.8
			C521.1,336.6,518.2,334.8,514.3,334.1z"/>
		<path class="st9" d="M509.2,341.8c-3.8-1-7.7,1-7.7,1s2.3,3.7,6.1,4.8c3.8,1,7.2,0.6,7.7-1C515.8,345,513,342.8,509.2,341.8z"/>
		<path class="st9" d="M503.5,350.5c-3.9-0.4-7.4,2.2-7.4,2.2s2.9,3.3,6.8,3.7c3.9,0.4,7.3-0.6,7.4-2.2
			C510.4,352.6,507.4,351,503.5,350.5z"/>
		<path class="st9" d="M513.9,321c1,3.6-0.8,7.2-0.8,7.2s-3.5-2.1-4.6-5.6c-1-3.6-0.7-6.8,0.8-7.2
			C510.8,314.9,512.9,317.4,513.9,321z"/>
		<path class="st9" d="M506.2,328.3c1.8,3.5,0.7,7.7,0.7,7.7s-4.1-1.5-6-5c-1.8-3.5-2.1-7-0.7-7.7
			C501.7,322.5,504.4,324.8,506.2,328.3z"/>
		<path class="st9" d="M500.5,335.5c2.2,3.3,1.5,7.6,1.5,7.6s-4.3-1-6.4-4.3c-2.2-3.3-2.8-6.7-1.5-7.6
			C495.4,330.2,498.3,332.2,500.5,335.5z"/>
		<path class="st9" d="M496.1,345.2c1.6,3.6,0.2,7.7,0.2,7.7s-4-1.7-5.6-5.3c-1.6-3.6-1.7-7.1-0.2-7.7
			C491.9,339.2,494.5,341.6,496.1,345.2z"/>
		<path class="st9" d="M498.3,359.8c-3.9,0.4-6.8,3.7-6.8,3.7s3.5,2.6,7.4,2.2c3.9-0.4,7-2.1,6.8-3.7
			C505.6,360.4,502.2,359.4,498.3,359.8z"/>
		<path class="st9" d="M490,356.1c2.3,3.2,1.8,7.5,1.8,7.5s-4.3-0.8-6.6-4c-2.3-3.2-3.1-6.6-1.8-7.5
			C484.7,351.1,487.7,352.9,490,356.1z"/>
		<path class="st9" d="M494.6,370.2c-3.9,0.7-6.5,4.3-6.5,4.3s3.7,2.3,7.6,1.6s6.8-2.7,6.5-4.3C501.8,370.1,498.4,369.4,494.6,370.2
			z"/>
		<path class="st9" d="M485.9,367.2c2.6,3,2.4,7.4,2.4,7.4s-4.3-0.5-6.9-3.5c-2.6-3-3.7-6.3-2.4-7.4S483.4,364.2,485.9,367.2z"/>
		<path class="st10" d="M537.5,309.1c0,0-20.5,8.1-36.8,35.7c-16.3,27.6-17.2,55.4-17.2,55.4"/>
	</g>
	<g>
		<path class="st5" d="M476.8,378c0,0-21-64.4,10.5-116.9c14.3-23.8,67.2-15.4,32.6,28.2C505.7,307.3,481.4,327,476.8,378z"/>
		<path class="st11" d="M506.9,268.5c0,0-50,61.1-23.5,133.6"/>
	</g>
	<g>
		<path class="st5" d="M487.4,389.3c0,0,9.7-31.1,36.7-42.9c12.2-5.3,30.7,12.7,4.9,20.1C518.4,369.6,503.4,370.6,487.4,389.3z"/>
		<path class="st12" d="M529.7,354.7c0,0-36.6,10-46.4,45.9"/>
	</g>
	<g>
		<path class="st13" d="M459.8,152.5l-0.1-7.4c0-1.2-0.6-2.3-1.4-3.1c-1.4-1.3-3.2-3.6-2.8-4.1c0.8-1,3.3,2.7,4.3,1.9
			c0.3-0.2-1.4-10.2-0.4-10.1c0.8,0,1.1,5.7,1.5,5.6c0.4,0,0.3-9.3,1-9.2c0.7,0.1,1,8.5,1.5,8.2c0.7-0.5,0-7.4,1.2-7.7
			c0.8-0.2,0.7,8.9,1.1,9c0.6,0.2,0.8-5.9,1.5-5.6c0.9,0.3-0.5,10.7-0.5,10.7l-1.8,13.1L459.8,152.5z"/>
		<path class="st13" d="M352.3,185.5l-5-5.5c-0.8-0.9-1.2-2.1-1.1-3.3c0.2-1.9-0.1-4.8-0.8-4.9c-1.2-0.2-0.6,4.2-1.8,4.3
			c-0.4,0-6-8.4-6.7-7.6c-0.5,0.6,3.1,4.9,2.8,5.1c-0.3,0.2-6.6-6.6-7.1-6c-0.5,0.5,5.2,6.8,4.6,7c-0.8,0.2-5.1-5.4-6.2-4.8
			c-0.7,0.4,5.6,6.9,5.4,7.3c-0.3,0.5-4.6-3.7-5-3.1c-0.5,0.9,7.7,7.4,7.7,7.4l10.3,8.3L352.3,185.5z"/>
		<g>
			<path class="st14" d="M421,166.5c-2.4-9.8-11.1-17-21.6-17c-0.9,0-1.8,0.1-2.7,0.2c-4.1,0.5-8.3,0.7-12.4,0.1
				c-1.8-0.2-3.9-0.5-6-0.8c-10-1.3-18,8.3-14.8,17.8c0,0.1,0.1,0.2,0.1,0.4c1.8,5.2,2.6,10.7,2.7,16.2c0,0.5,0,0.9,0.1,1.4
				c0.8,10.4,8.9,19,19.3,20.4c1.3,0.2,2.6,0.2,3.9,0.2c6-0.3,11.9,0.6,17.4,2.8c2.4,1,4.8,1.7,6.8,1.7c12.3,0,22.3-10,22.3-22.3
				C436.1,177.8,429.8,169.5,421,166.5z"/>
			<path class="st15" d="M472.9,163.8c0,0-3.5,34.5-8.7,44.5c-4.2,7.9-25,25.7-25,25.7c-2.9,3-7.8,2.8-10.5-0.4v0
				c-1.9-2.3-2.2-5.6-0.7-8.2c0,0,19-20.5,21.9-29.2c2.7-8.2-0.4-34.6-0.4-34.6c-0.1-7.7,7-13.4,14.5-11.7h0
				C470.1,151.4,474.1,157.5,472.9,163.8z"/>
			<path class="st14" d="M447.5,357.3c-3.9-1.3-4.6,1.4-5.9,6.3c-1.3,4.8-1.5,8.5-0.3,8.8c1.2,0.3,2.8-1.4,5.6-5.5
				C450.2,361.8,450,358.1,447.5,357.3z"/>
			<path class="st13" d="M450.4,352.4l-3.8,5.2c-1.2,1.6-1.2,2.8-0.4,3.6v0c0.7,0.7,1.9,0.8,2.7,0.1l6.3-5.2L450.4,352.4z"/>
			<path class="st16" d="M436.6,263.1c-19,7.5-13.7,33.2-4.8,38.5c13.3,7.9,39.8,4.6,39.8,6.6c0.1,8.7-23,45-23,45
				c-0.2,0.3-0.2,0.8,0.1,1.1c1.3,1.5,2.2,2.5,4.7,4.1c0.3,0.2,0.7,0,0.9-0.2c12.9-12.1,39.2-41.8,42.3-54.7
				C501.8,282,440.2,261.7,436.6,263.1z"/>
			<path class="st14" d="M343.8,343.7c-1.7-3.7-4.2-2.4-8.6-0.1c-4.4,2.3-7.3,4.6-6.7,5.7c0.6,1.1,2.9,1.1,7.9,0.4
				C342.3,348.8,344.9,346.1,343.8,343.7z"/>
			<path class="st13" d="M349.4,342.6l-6.4,0.7c-2,0.2-2.9,1-2.9,2.1l0,0c0,1.1,0.7,2,1.8,2l8.1,1.1L349.4,342.6z"/>
			<path class="st17" d="M437.8,266.1c-3.9-4-22.3-0.8-22.3-0.8c-19.1,7.2-18.1,23.8-16,34c3.1,15.1-1.7,27.7-3.2,29.1
				c-6.3,5.9-48.7,13.4-48.7,13.4c-0.4,0.1-0.7,0.4-0.7,0.8c-0.2,2-0.4,3.4,0.1,6.2c0.1,0.3,0.4,0.5,0.8,0.5
				c17.6,1.4,53.1,4.5,64.5-2.3C438.2,331.5,452.6,281.3,437.8,266.1z"/>
			<path class="st15" d="M437.7,273.4c5.9-0.8,10.9-4.9,12.6-10.7c2.6-8.6,6.1-22.7,4.5-30.7c-1.5-7.5-7.3-21.4-21.9-21.4
				c-9.7,0-29.3,2.9-28.1,17.8c0.8,9.3,2.4,26.8,9.7,38.5c1.4,2.2,3.5,3.9,5.9,4.7C424.4,272.7,430.8,274.2,437.7,273.4z"/>
			<path class="st18" d="M432.3,218.6h-2.1c-2.2,0-4.1-1.8-4.1-4.1v-17.9h10.2v17.9C436.4,216.8,434.6,218.6,432.3,218.6z"/>
			<path class="st19" d="M435.4,209.8L435.4,209.8c0.3,0,0.7,0,1-0.1v-13h-10.2v1.9C426.2,203.7,430.3,209.8,435.4,209.8z"/>
			<path class="st13" d="M437.7,206.3L437.7,206.3c-4.2,1.6-11.7-1.3-13.3-5.5c0,0-3.5-6.3-3.3-8.6c0.9-10.6,11-8.6,14.7-6.9
				c2.1,0.9,3.1,7.5,3.7,9.7C440.6,199.4,439.5,205.6,437.7,206.3z"/>
			<path class="st18" d="M419.8,198.1c0.7,1.9,2.8,2.8,4.6,2.1l-2.6-6.7C420,194.2,419.1,196.3,419.8,198.1z"/>
			<path class="st18" d="M435.8,185.3l-12.7,4.9l1.1,2.8c-1.3,0.6-1.9,2-1.4,3.4c0.1,0.3,0.3,0.6,0.6,0.9c0.3-0.2,0.5-0.5,0.7-0.8
				c0.4-0.6,1-1.1,1.7-1.3c1.5-0.6,2.7-1.7,3.5-3c1.1-1.9,2.9-3.3,5-3.7c0.4-0.1,0.9-0.2,1.3-0.4c0.4-0.1,0.7-0.3,1.1-0.5
				L435.8,185.3z"/>
			<path class="st14" d="M427.3,168.3c-2.7,1.1-4.7,3.4-5.6,6c-0.9,2.7-3,4.9-5.5,6.4c0,0-0.1,0-0.1,0.1c-2.7,1.7-4.1,5-3.6,8.2
				c0.1,0.4,0.2,0.8,0.3,1.2c0.4,1.3,0.7,2.6,0.5,4c-0.1,0.6,0,1.3,0.2,1.9c0.8,2.2,3.4,3.2,5.7,2.3c1-0.4,1.7-1,2.2-1.8
				c0.5-0.7,1.2-1.2,2-1.5c1.7-0.7,3.1-1.9,4-3.4c1.2-2.1,3.3-3.7,5.7-4.2c0.5-0.1,1-0.3,1.5-0.4c5.3-2,7.8-8,5.7-13.2
				C438.3,168.8,432.1,166.3,427.3,168.3z"/>
			<path class="st15" d="M346.2,198.2c0,0,22.7,21.1,33,25.5c7.4,3.2,36.4,6.2,36.4,6.2c3.7,0.9,7.4-1.5,8.1-5.2l0,0
				c0.5-2.7-0.8-5.4-3.1-6.6c0,0-25.7-4.1-32.8-8.2c-7.2-4.1-23.9-24.4-23.9-24.4c-6.5-6.2-11.6-7.1-16.7-2.2l0,0
				C342.8,187.3,341,195,346.2,198.2z"/>
		</g>
	</g>
</g>
</svg>
